<?xml version="1.0" standalone="no"?>
<!DOCTYPE svg PUBLIC "-//W3C//DTD SVG 20010904//EN"
 "http://www.w3.org/TR/2001/REC-SVG-20010904/DTD/svg10.dtd">
<svg version="1.0" xmlns="http://www.w3.org/2000/svg"
 width="1280.000000pt" height="960.000000pt" viewBox="0 0 1280.000000 960.000000"
 preserveAspectRatio="xMidYMid meet">
<metadata>
Created by potrace 1.15, written by Peter Selinger 2001-2017
</metadata>
<g transform="translate(0.000000,960.000000) scale(0.100000,-0.100000)"
fill="#000000" stroke="none">
<path d="M923 8733 c-6 -15 14 -340 102 -1688 13 -203 45 -685 70 -1070 25
-385 61 -929 79 -1208 22 -324 38 -513 45 -520 12 -12 48 -9 941 93 278 32
507 56 509 54 2 -2 -26 -84 -63 -182 -37 -97 -97 -256 -133 -353 -64 -168 -67
-175 -92 -172 -14 2 -231 29 -481 60 -438 54 -464 57 -690 56 -441 0 -839 -62
-988 -153 -43 -26 -74 -78 -67 -109 12 -49 47 -81 128 -121 173 -83 409 -122
847 -140 258 -10 352 -23 552 -74 317 -82 544 -194 536 -264 -9 -72 -288 -135
-603 -136 -93 0 -278 2 -410 4 -252 4 -324 -2 -441 -41 -74 -24 -140 -77 -153
-124 -38 -139 143 -312 522 -495 l117 -56 -100 -18 c-55 -10 -101 -21 -103
-24 -3 -6 19 -579 22 -590 1 -1 12 -7 24 -11 19 -8 1588 -677 2066 -882 63
-27 123 -49 134 -49 17 0 319 55 1857 339 478 88 1682 311 2085 385 193 35
661 121 1040 191 380 70 695 132 701 139 8 7 13 70 15 175 l4 163 -1177 523
-1176 522 -179 -29 c-1416 -229 -5040 -808 -5058 -808 -56 0 -402 172 -534
264 -100 71 -178 155 -187 202 -19 99 153 154 484 154 86 0 216 -5 288 -11
221 -19 586 25 725 87 64 29 119 82 119 115 0 122 -231 256 -600 349 -201 51
-347 70 -610 80 -264 10 -367 20 -518 49 -161 31 -312 90 -337 132 -13 20 38
58 111 83 110 39 253 64 490 87 337 33 550 25 1054 -39 217 -28 423 -53 458
-57 l62 -7 0 -77 0 -78 316 -304 c201 -194 325 -305 340 -307 24 -3 1650 146
1672 153 9 3 12 40 12 138 l0 134 -457 173 c-252 95 -471 178 -488 185 l-30
12 41 21 c23 12 55 32 71 46 l30 25 74 -39 c189 -99 424 -161 874 -230 220
-33 265 -45 265 -65 0 -8 -20 -54 -45 -102 -60 -116 -85 -199 -85 -282 0 -60
3 -70 28 -93 98 -92 219 -88 520 18 537 190 647 215 956 215 288 1 372 -18
634 -149 l172 -85 103 -5 c125 -5 215 11 407 74 224 73 333 95 515 101 182 6
276 -7 419 -57 80 -28 93 -30 244 -30 l159 0 -18 -52 c-9 -29 -22 -54 -28 -56
-6 -2 -278 -41 -606 -86 -327 -45 -596 -84 -598 -86 -2 -3 -1 -27 2 -54 l6
-49 995 -434 995 -434 1345 227 c740 125 1355 231 1368 236 20 7 23 14 20 55
l-3 48 -962 397 -963 398 -111 -16 -111 -15 -97 42 c-111 49 -247 91 -370 116
-124 25 -419 24 -516 -1 -98 -26 -204 -76 -254 -121 l-41 -37 -186 1 c-177 2
-191 4 -275 32 -275 92 -555 76 -959 -56 -229 -74 -341 -89 -447 -61 -29 8
-108 43 -177 79 -222 116 -330 144 -586 154 -284 10 -481 -23 -805 -133 -104
-36 -250 -86 -324 -110 -185 -63 -301 -71 -360 -25 -25 19 -25 20 -13 98 9 59
26 105 69 193 33 67 57 128 57 147 0 67 -61 100 -229 123 -447 63 -747 136
-925 225 l-86 43 4 64 c3 43 -3 89 -17 145 -30 118 -29 124 32 178 l52 48 5
-206 c3 -113 8 -208 11 -212 4 -3 224 -46 490 -95 266 -48 988 -181 1604 -294
616 -113 1136 -206 1154 -206 19 0 424 41 900 90 476 50 1028 108 1226 128
l360 37 6 45 c4 25 12 709 19 1520 6 811 15 1871 20 2355 5 524 5 884 0 889
-5 5 -571 43 -1257 84 l-1248 74 -778 -53 c-620 -41 -781 -50 -787 -39 -4 7
-11 75 -15 151 -5 95 -11 144 -20 153 -14 14 -30 15 -1115 36 -267 5 -712 14
-990 20 -278 5 -741 15 -1030 20 -289 6 -725 15 -970 20 -644 14 -689 14 -697
-7z m3117 -4217 l0 -33 -49 5 c-39 3 -57 0 -84 -17 -59 -36 -72 -77 -72 -221
0 -117 -2 -128 -28 -177 -45 -86 -35 -187 28 -268 l23 -32 -53 -32 c-29 -18
-74 -39 -100 -46 -42 -13 -51 -13 -99 6 l-53 19 113 397 c63 218 117 400 121
404 8 8 145 25 216 28 36 1 37 0 37 -33z m5 -171 c0 -79 -8 -105 -21 -70 -9
23 -21 19 -69 -26 l-45 -42 0 72 c0 107 26 147 89 135 16 -4 32 -1 35 5 4 6 8
11 9 11 1 0 2 -38 2 -85z m-160 -394 c23 -94 17 -120 -14 -59 -18 37 -21 57
-16 88 4 22 8 40 10 40 1 0 10 -31 20 -69z"/>
</g>
</svg>
