<?xml version="1.0" standalone="no"?>
<!DOCTYPE svg PUBLIC "-//W3C//DTD SVG 20010904//EN"
 "http://www.w3.org/TR/2001/REC-SVG-20010904/DTD/svg10.dtd">
<svg version="1.0" xmlns="http://www.w3.org/2000/svg"
 width="1160.000000pt" height="1280.000000pt" viewBox="0 0 1160.000000 1280.000000"
 preserveAspectRatio="xMidYMid meet">
<metadata>
Created by potrace 1.15, written by Peter Selinger 2001-2017
</metadata>
<g transform="translate(0.000000,1280.000000) scale(0.100000,-0.100000)"
fill="#000000" stroke="none">
<path d="M4030 12781 c-260 -72 -595 -268 -865 -505 -214 -188 -271 -225 -321
-206 -15 6 -58 40 -95 75 -67 62 -109 82 -154 73 -36 -7 -57 -53 -70 -157 -8
-62 -23 -121 -38 -153 -37 -81 -131 -205 -268 -355 -286 -314 -388 -446 -469
-608 -135 -272 -141 -546 -23 -1110 49 -237 94 -380 163 -520 93 -189 194
-318 495 -635 238 -250 378 -437 390 -520 21 -143 55 -280 125 -504 92 -294
100 -336 76 -399 -35 -93 -131 -156 -391 -258 -203 -80 -250 -102 -282 -132
-32 -29 -29 -58 13 -112 47 -62 41 -82 -39 -138 -135 -97 -601 -329 -883 -440
-321 -127 -447 -143 -954 -123 -260 10 -293 5 -351 -53 -72 -72 -106 -256 -75
-408 61 -300 279 -545 542 -609 38 -9 75 -22 82 -29 19 -18 -1 -52 -89 -150
-204 -227 -345 -463 -364 -611 -19 -137 74 -238 355 -389 268 -145 303 -178
395 -370 81 -169 104 -200 184 -254 156 -106 377 -165 616 -165 148 0 212 11
340 61 77 30 96 34 143 28 102 -13 308 -135 499 -297 164 -139 506 -535 600
-695 13 -23 35 -88 48 -145 33 -149 73 -274 110 -349 38 -75 103 -139 141
-139 33 0 76 46 92 97 29 96 79 131 142 98 52 -27 63 -69 62 -230 -1 -150 -23
-436 -48 -603 -40 -272 -107 -412 -227 -473 -104 -54 -162 -148 -155 -251 7
-93 47 -117 191 -118 264 -1 577 175 710 399 70 118 114 145 247 155 147 10
228 80 249 213 20 125 -27 302 -121 455 -28 46 -73 118 -99 161 -98 160 -124
295 -153 802 -26 439 -38 699 -34 753 l3 53 230 108 c321 151 508 222 688 262
279 61 473 154 725 346 103 79 187 121 322 163 58 17 150 54 205 81 116 56
181 69 355 68 182 0 324 -23 359 -58 22 -22 42 -124 76 -397 40 -320 79 -446
174 -564 29 -36 61 -81 71 -100 65 -128 106 -392 155 -1020 46 -585 39 -688
-60 -850 -81 -133 -212 -245 -394 -336 -168 -84 -236 -160 -183 -207 9 -8 42
-23 72 -34 47 -15 87 -18 270 -18 271 1 360 17 525 99 144 70 272 108 415 121
87 8 229 33 262 46 24 10 27 16 32 82 14 179 16 604 6 1217 -11 740 -24 1139
-49 1523 -9 141 -14 256 -11 255 3 -2 76 -76 162 -165 239 -247 334 -384 388
-563 52 -169 91 -230 149 -230 39 0 96 55 111 107 37 127 60 476 60 894 0 466
-19 652 -68 674 -24 11 -52 61 -52 94 0 11 12 34 28 51 22 25 39 33 90 41 89
14 148 44 215 111 72 71 105 140 117 247 7 60 18 97 41 142 72 134 290 294
758 555 158 88 246 167 296 266 45 91 48 157 8 229 -58 108 -211 194 -583 329
-587 213 -856 346 -1028 505 -60 55 -226 260 -245 303 -9 19 -5 28 24 59 54
57 226 191 279 218 66 33 94 32 161 -10 31 -19 86 -42 123 -50 210 -49 620
-32 807 34 82 29 405 176 463 211 174 106 450 379 544 539 40 68 38 154 -5
242 -116 236 -530 539 -1211 888 -108 55 -339 170 -512 254 -480 234 -683 353
-815 479 -96 90 -130 153 -130 238 0 56 6 77 44 155 55 114 79 182 92 264 13
86 60 194 119 279 53 75 86 102 125 102 14 0 39 7 55 15 25 13 30 22 30 53 0
96 -132 245 -480 540 l-215 182 -75 0 c-125 0 -985 -32 -990 -37 -3 -2 -8
-183 -12 -401 -7 -469 -22 -647 -64 -764 -11 -32 -12 -49 -4 -74 11 -32 77
-101 119 -123 30 -17 81 -89 81 -116 0 -89 -204 17 -515 266 -173 138 -238
194 -486 420 -431 393 -590 504 -1028 720 -310 152 -432 222 -506 289 -67 60
-81 68 -150 81 -126 23 -523 210 -694 327 -66 45 -87 65 -96 92 -21 62 -90 75
-215 41z m18 -195 c10 -47 -26 -86 -78 -86 -30 0 -24 -26 20 -92 52 -78 54
-124 10 -162 -39 -32 -79 -43 -208 -55 -161 -15 -235 -55 -437 -236 -130 -117
-226 -185 -260 -185 -38 0 -85 55 -85 100 0 83 241 326 480 485 112 75 175
105 290 140 47 14 122 46 165 70 84 46 98 49 103 21z m435 -207 c214 -47 397
-133 397 -186 0 -41 -220 -91 -512 -115 -159 -13 -218 -7 -218 20 0 10 25 57
55 105 85 134 90 162 37 193 -25 14 -22 15 61 9 48 -3 129 -14 180 -26z m561
-258 c12 -19 -7 -41 -57 -66 -28 -14 -62 -25 -76 -25 l-25 0 30 31 c52 56 113
84 128 60z m-1232 -90 c54 -63 113 -73 483 -80 l300 -6 110 -212 c61 -116 140
-256 177 -310 150 -220 353 -462 623 -743 541 -563 1115 -1218 1274 -1453 103
-153 137 -247 186 -502 37 -198 85 -514 85 -562 0 -68 -82 -98 -245 -90 -142
7 -280 42 -410 106 -111 55 -472 291 -992 649 -325 224 -343 238 -343 267 0
17 9 165 20 330 33 482 41 717 30 884 -21 333 -89 507 -264 673 -182 173 -440
200 -739 77 -236 -98 -452 -248 -760 -529 -151 -138 -315 -272 -358 -295 -23
-13 -28 -12 -42 3 -23 27 -37 113 -37 232 0 148 13 205 56 244 45 41 76 132
103 302 28 170 40 221 62 266 25 48 82 94 144 114 148 49 217 117 195 194 -5
17 -27 54 -49 82 -23 28 -41 54 -41 59 0 41 65 119 175 209 153 125 212 146
257 91z m1459 -60 c235 -120 669 -457 884 -686 145 -155 249 -234 420 -321
144 -73 340 -198 455 -291 122 -97 345 -294 343 -303 -1 -4 -52 -115 -113
-246 -118 -255 -215 -440 -254 -489 -24 -29 -25 -30 -40 -10 -21 28 -96 257
-156 480 -88 325 -136 453 -160 429 -19 -19 -32 -160 -27 -294 6 -164 24 -233
109 -414 66 -142 83 -206 53 -206 -50 0 -250 198 -305 301 -30 58 -33 71 -32
139 3 127 -37 193 -267 444 -74 81 -166 186 -203 234 -113 144 -123 154 -155
150 -26 -3 -28 -7 -31 -50 -3 -39 5 -63 49 -152 50 -101 56 -136 25 -136 -38
0 -155 184 -223 350 -29 72 -48 138 -58 204 -17 117 -37 156 -85 169 -117 30
-492 351 -520 444 -12 39 -11 46 19 108 47 101 127 185 176 185 11 0 55 -17
96 -39z m-2502 -106 c16 -8 73 -53 127 -101 104 -91 172 -140 267 -194 76 -43
64 -54 -51 -48 -96 4 -142 23 -142 57 0 28 -32 50 -90 61 -61 11 -108 44 -151
103 -30 42 -54 111 -44 127 9 15 52 12 84 -5z m5456 -214 c287 -68 591 -206
692 -314 36 -39 44 -53 41 -80 -3 -31 -4 -32 -53 -31 -38 0 -100 20 -255 81
-323 128 -557 194 -740 209 -109 8 -150 24 -150 58 0 36 44 72 120 97 44 15
249 3 345 -20z m-5494 -69 c61 -40 146 -135 159 -180 13 -49 13 -50 -10 -125
-15 -49 -56 -119 -156 -269 -75 -112 -151 -234 -170 -271 l-35 -68 15 -54 c35
-119 151 -316 195 -330 29 -9 41 -57 51 -206 10 -145 20 -189 56 -261 47 -93
113 -143 275 -207 215 -85 252 -165 159 -339 -92 -170 -319 -432 -388 -447
-44 -9 -78 14 -104 71 -21 49 -90 393 -114 569 -17 129 -30 151 -69 115 -43
-40 -67 -122 -74 -250 l-6 -115 -67 135 c-120 240 -188 539 -188 826 0 145 -6
157 -73 133 -35 -11 -46 -23 -66 -63 -100 -201 37 -835 219 -1017 27 -27 58
-49 68 -49 38 0 83 -23 96 -49 7 -14 16 -49 20 -78 8 -66 25 -106 69 -163 46
-61 58 -86 51 -104 -38 -100 -421 322 -570 629 -82 170 -151 421 -174 634 -16
145 -1 232 44 270 25 21 20 120 -14 261 -16 69 -30 150 -30 180 0 98 60 196
255 415 379 428 457 482 576 407z m3640 -243 c61 -31 129 -97 129 -126 0 -76
-144 -12 -195 87 -31 59 -4 75 66 39z m-1059 -148 c83 -78 98 -111 51 -111
-55 0 -138 81 -192 187 -11 23 -21 47 -21 53 0 15 67 -38 162 -129z m2550 53
c9 -19 9 -42 0 -98 -21 -121 12 -216 79 -231 21 -5 35 0 63 25 41 37 66 105
66 184 0 60 25 116 60 133 55 28 171 6 184 -34 3 -10 5 -74 4 -143 -2 -139 9
-188 49 -220 62 -48 153 2 153 85 0 39 53 75 110 75 27 0 52 -5 55 -11 4 -5
-6 -28 -22 -51 -62 -88 -66 -98 -53 -113 9 -11 8 -20 -8 -42 -27 -39 -176
-181 -302 -288 -244 -209 -331 -258 -355 -197 -3 9 -9 46 -12 82 -5 56 -1 78
26 156 48 142 46 149 -69 159 -94 9 -157 35 -170 70 -14 37 -12 119 5 217 36
208 101 322 137 242z m-4984 -371 c7 -47 -68 -115 -89 -82 -15 24 -10 68 12
90 27 27 73 23 77 -8z m1706 -239 c221 -127 303 -214 267 -282 -16 -29 -68
-44 -111 -32 -76 22 -146 8 -214 -41 -22 -16 -48 -29 -57 -29 -22 0 -33 46
-24 98 8 50 -10 169 -41 266 -32 101 -25 114 49 86 28 -11 87 -40 131 -66z
m-306 -116 c15 -15 15 -60 0 -109 -19 -64 3 -134 62 -204 72 -85 70 -95 -39
-209 -93 -98 -129 -163 -117 -210 8 -32 32 -56 57 -56 54 0 154 84 214 181 82
131 152 173 230 137 52 -24 21 -84 -106 -202 -143 -133 -298 -236 -355 -236
-69 0 -200 107 -287 233 -37 55 -42 68 -40 114 4 102 97 330 189 460 32 45 57
68 96 87 58 29 78 32 96 14z m4397 -48 c70 -71 8 -193 -157 -307 -109 -76
-194 -115 -249 -117 -40 -1 -52 4 -78 28 -17 17 -31 39 -31 51 0 75 213 283
365 357 71 34 106 32 150 -12z m-5019 -285 c7 -51 2 -161 -9 -171 -15 -15 -22
10 -26 87 -3 83 3 129 19 129 5 0 12 -20 16 -45z m3884 -45 c11 -11 20 -29 20
-40 0 -42 -62 -75 -96 -52 -23 15 -34 50 -25 75 16 41 68 50 101 17z m1348 0
c28 -27 35 -57 30 -129 -6 -81 -53 -172 -135 -261 -161 -174 -275 -174 -364 2
-37 74 -38 125 -3 167 57 69 356 241 417 241 20 0 42 -8 55 -20z m-894 -60
c73 -67 85 -104 55 -166 -24 -51 -109 -120 -195 -161 -61 -28 -80 -23 -95 26
-20 68 33 245 98 321 38 45 70 40 137 -20z m-4536 -200 c69 -50 152 -166 152
-214 0 -7 -8 -24 -18 -36 -25 -31 -61 -19 -128 43 -74 67 -124 169 -109 218 9
29 55 24 103 -11z m5804 13 c22 -20 24 -76 2 -94 -29 -24 -105 77 -77 104 12
13 56 7 75 -10z m-976 -157 c28 -28 34 -41 34 -77 0 -64 -29 -105 -96 -136
-30 -14 -73 -27 -95 -30 -38 -5 -43 -3 -86 43 -25 27 -52 62 -60 77 -13 25
-13 31 1 52 32 48 153 103 230 104 30 1 45 -6 72 -33z m908 -88 c28 -40 14
-144 -21 -155 -6 -2 -23 13 -37 34 -28 41 -35 110 -14 131 19 19 55 14 72 -10z
m-1850 -59 c31 -24 34 -59 6 -84 -27 -24 -70 -22 -92 5 -24 30 -23 46 7 75 29
30 45 31 79 4z m-3289 -44 c27 -52 50 -57 232 -49 169 7 203 3 203 -25 0 -43
-187 -172 -308 -212 -93 -31 -172 -24 -215 19 -28 28 -32 39 -35 101 -5 84 18
161 55 191 33 26 43 23 68 -25z m5668 3 c12 -15 17 -38 17 -83 0 -86 8 -92
111 -75 48 7 104 10 141 6 94 -11 285 -78 452 -159 445 -216 839 -504 922
-673 25 -51 26 -58 14 -97 -29 -100 -122 -183 -306 -276 -216 -107 -459 -174
-819 -226 -268 -38 -337 -57 -390 -111 -23 -23 -33 -26 -76 -22 -93 9 -169 84
-191 189 -9 45 -8 64 6 114 29 99 74 134 301 234 261 114 409 163 499 164 39
1 98 -3 130 -8 52 -7 61 -6 72 10 33 45 1 145 -46 145 -11 0 -27 11 -36 25
-14 21 -15 32 -5 69 18 74 14 123 -11 140 -36 25 -98 20 -165 -14 -58 -29 -85
-55 -177 -164 -54 -66 -127 -106 -193 -106 -70 0 -98 15 -133 71 -34 57 -82
84 -166 97 -62 10 -157 2 -192 -17 -11 -6 -34 -28 -51 -50 -18 -22 -40 -43
-51 -46 -86 -27 -123 178 -66 368 67 223 220 470 319 512 38 16 65 11 90 -17z
m-2114 -75 c12 -34 12 -46 1 -72 -20 -50 -35 -32 -38 48 -3 83 13 94 37 24z
m219 -29 c53 -37 64 -111 21 -135 -33 -17 -69 -3 -85 36 -18 44 -18 65 2 93
18 26 32 28 62 6z m-4058 -59 c6 -8 17 -46 23 -85 10 -65 9 -72 -9 -90 -10
-10 -48 -28 -84 -40 -72 -24 -220 -39 -220 -23 0 33 126 161 221 225 48 32 52
33 69 13z m5350 -40 c23 -12 30 -22 30 -45 0 -23 -7 -33 -30 -45 -52 -27 -129
-15 -149 24 -32 58 74 105 149 66z m-1072 -30 c13 -28 16 -84 6 -109 -9 -23
-31 -19 -38 7 -12 44 -3 127 14 127 4 0 12 -11 18 -25z m-840 -27 c19 -19 15
-34 -19 -73 -37 -42 -56 -44 -69 -9 -14 36 -13 42 15 69 26 27 54 32 73 13z
m310 -60 c19 -19 14 -60 -13 -115 -34 -68 -51 -74 -66 -21 -13 51 -5 97 22
126 22 25 39 28 57 10z m-2923 -12 c26 -19 14 -43 -70 -136 -38 -41 -87 -105
-111 -141 -55 -84 -68 -95 -98 -81 -32 14 -141 153 -156 197 -10 30 -9 40 5
61 23 35 102 69 215 93 114 24 189 26 215 7z m3831 0 c25 -19 15 -27 -40 -33
-80 -9 -126 14 -68 35 40 15 85 14 108 -2z m251 -99 c40 -37 38 -52 -8 -62
-37 -8 -76 15 -85 50 -14 55 38 62 93 12z m-945 -24 c22 -20 24 -76 2 -94 -29
-24 -105 77 -77 104 12 13 56 7 75 -10z m1278 -63 c26 -26 25 -48 -2 -77 -26
-28 -61 -30 -88 -3 -24 24 -25 48 -4 78 19 28 67 29 94 2z m-5096 -4 c34 -14
76 -59 76 -82 0 -7 -11 -21 -25 -30 -20 -13 -34 -14 -92 -5 -79 12 -129 3
-159 -30 -24 -27 -10 -50 42 -67 35 -12 175 -16 359 -9 36 2 40 0 38 -21 -3
-28 -89 -156 -134 -199 -39 -37 -106 -68 -168 -78 -53 -9 -173 3 -165 16 3 5
43 28 89 50 89 43 145 90 145 121 0 30 -57 48 -150 48 -102 0 -144 -16 -164
-64 -15 -36 -46 -56 -87 -56 -35 0 -34 29 4 68 45 48 65 89 82 170 18 85 37
110 115 150 70 36 136 42 194 18z m4130 -27 c33 -26 33 -47 0 -59 -65 -25
-151 -1 -137 38 16 46 91 57 137 21z m235 -80 c42 -15 56 -41 39 -77 -20 -42
-75 -43 -122 -2 -20 18 -36 40 -36 51 0 36 57 49 119 28z m-925 -31 c28 -39
14 -138 -18 -138 -9 0 -27 12 -41 27 -34 38 -34 85 1 112 33 26 39 26 58 -1z
m254 -101 c8 -6 12 -25 10 -46 -2 -27 -9 -39 -30 -49 -52 -25 -98 16 -84 74
10 40 66 52 104 21z m946 2 c25 -20 33 -53 18 -75 -9 -13 -46 -34 -62 -34 -17
0 -60 47 -60 65 0 20 44 65 63 65 8 0 26 -9 41 -21z m-3444 -16 c29 -16 50
-51 66 -107 15 -48 50 -66 152 -76 100 -11 159 -30 168 -55 9 -23 1 -27 -62
-36 -65 -9 -104 -31 -104 -60 0 -32 60 -50 215 -64 192 -18 260 -48 401 -176
136 -123 229 -180 313 -194 50 -8 91 -43 91 -76 0 -36 -80 -103 -182 -153 -86
-43 -168 -68 -260 -81 -60 -9 -59 -59 3 -91 123 -63 431 23 554 156 17 17 46
40 65 50 112 57 536 112 704 91 170 -21 200 -50 172 -172 -29 -128 -20 -143
89 -154 88 -9 125 -27 125 -60 0 -31 -33 -41 -86 -26 -65 18 -104 13 -193 -28
-119 -55 -205 -75 -511 -122 -230 -35 -279 -40 -375 -35 -381 18 -1457 312
-1559 425 -18 20 -18 21 8 31 17 6 154 9 359 8 276 -1 345 1 406 15 138 31
183 70 120 103 -74 38 -170 46 -609 53 l-425 6 1 146 c2 216 35 371 106 514
82 163 164 218 248 168z m3882 -90 c66 -38 36 -58 -89 -58 -54 0 -76 4 -89 17
-20 20 -12 45 18 58 33 14 123 4 160 -17z m-803 -55 c14 -24 14 -32 1 -69 -18
-50 -37 -64 -74 -55 -57 14 -56 91 2 137 32 25 52 21 71 -13z m-911 -96 c4
-29 -42 -92 -67 -92 -36 0 -43 68 -10 101 28 28 73 23 77 -9z m262 -52 c11
-11 20 -31 20 -45 0 -34 -56 -95 -86 -95 -49 0 -56 90 -12 137 26 28 52 29 78
3z m2041 -6 c25 -22 24 -46 -2 -70 -29 -26 -149 -33 -184 -10 -32 21 -31 31 2
62 49 45 143 55 184 18z m-685 -69 c20 -79 -70 -186 -281 -335 -172 -121 -251
-185 -356 -286 -120 -115 -106 -109 -355 -165 -144 -33 -190 -34 -229 -5 -43
32 -8 134 75 217 61 61 133 97 229 114 105 18 186 53 287 122 200 137 293 183
365 183 74 0 162 54 212 131 18 27 35 49 39 49 4 0 10 -11 14 -25z m-5399
-417 c-9 -479 -27 -730 -63 -857 -13 -47 -17 -52 -30 -40 -22 23 -32 98 -45
331 -10 169 -10 271 -1 465 20 417 37 479 126 482 19 1 19 -9 13 -381z m4369
357 c20 -31 15 -53 -18 -78 -23 -17 -31 -19 -53 -9 -64 29 -50 112 20 112 26
0 39 -6 51 -25z m-4076 -38 c0 -24 -7 -95 -15 -158 -29 -218 -43 -363 -70
-699 -34 -428 -63 -512 -86 -241 -14 164 -6 839 10 931 15 84 52 159 93 188
51 35 68 30 68 -21z m4299 -43 c26 -33 26 -48 1 -89 -42 -68 -80 -49 -80 40 0
77 39 100 79 49z m-613 -158 c18 -14 18 -15 -9 -25 -45 -17 -137 -11 -137 9 0
26 115 38 146 16z m1716 -16 c121 -34 75 -201 -104 -387 -90 -92 -145 -118
-238 -110 -118 10 -392 103 -414 140 -9 16 -4 25 37 62 147 134 472 281 672
304 6 0 27 -4 47 -9z m1219 -299 c19 -16 22 -23 13 -37 -21 -35 -82 -47 -236
-48 -168 -1 -197 9 -130 43 113 58 306 81 353 42z m-5461 -342 c41 -11 167
-52 280 -90 465 -158 749 -224 1091 -253 369 -32 507 -62 572 -123 47 -46 35
-118 -26 -149 -76 -39 -231 -170 -692 -589 -459 -415 -563 -507 -574 -503 -5
1 -117 114 -249 250 -273 281 -381 415 -407 505 -22 76 -62 144 -146 251 -38
48 -85 117 -103 154 -95 187 -83 408 28 524 40 41 46 44 97 44 30 0 88 -9 129
-21z m3363 -90 c16 -23 17 -30 7 -50 -16 -30 -29 -39 -59 -39 -56 0 -83 73
-38 105 30 22 66 15 90 -16z m-340 -85 c49 -49 42 -111 -14 -129 -28 -9 -86
21 -103 54 -21 40 -20 57 4 81 29 29 81 26 113 -6z m-267 -320 c92 -152 204
-284 240 -284 10 0 265 82 565 182 l547 182 87 -79 c252 -231 338 -296 442
-335 32 -12 99 -26 148 -30 113 -10 166 -24 202 -54 51 -42 94 -57 189 -67 51
-5 128 -18 171 -29 100 -26 307 -125 297 -142 -5 -7 -84 -95 -177 -195 l-170
-183 -111 103 c-172 160 -265 227 -315 227 -46 0 -32 -40 45 -130 26 -30 61
-84 78 -120 29 -60 31 -73 31 -170 0 -88 -4 -114 -23 -156 -40 -88 -140 -163
-201 -149 -40 9 -96 66 -170 175 -117 170 -178 335 -138 369 14 11 17 7 22
-26 3 -21 8 -47 10 -59 6 -28 53 -74 76 -74 25 0 49 27 49 55 0 66 -293 539
-452 728 -154 184 -227 182 -326 -10 -45 -88 -39 -100 36 -76 68 22 80 12 62
-50 -15 -57 -2 -87 38 -87 35 0 68 23 88 62 21 41 26 30 13 -30 -21 -101 40
-264 215 -570 99 -174 196 -367 196 -391 0 -26 29 -61 50 -61 48 0 160 -226
160 -323 0 -34 -6 -46 -39 -77 -53 -50 -154 -100 -203 -100 -21 0 -52 7 -67
15 -52 26 -91 140 -91 264 0 73 -23 178 -50 232 -49 97 -139 159 -207 143 -90
-22 -113 -58 -113 -179 0 -78 23 -326 35 -382 7 -30 3 -30 -275 7 -772 103
-1324 263 -1697 491 -131 80 -273 206 -330 291 -34 50 -27 82 38 184 98 152
131 248 97 282 -17 17 -87 15 -138 -3 -60 -21 -160 -95 -211 -156 -78 -94
-154 -133 -134 -69 31 97 651 601 801 650 71 24 108 -39 124 -212 45 -473 261
-874 502 -927 26 -6 60 -8 77 -5 60 12 39 54 -108 215 -151 163 -227 283 -245
382 -4 21 -4 77 0 125 l8 87 18 -110 c22 -129 48 -183 100 -207 31 -15 39 -25
53 -73 12 -43 30 -70 81 -125 37 -38 93 -88 126 -110 149 -99 128 -12 -69 287
-147 221 -160 263 -87 263 44 0 74 -23 74 -57 0 -82 166 -252 225 -229 37 14
-1 134 -101 324 -89 170 -169 276 -202 270 -23 -4 -52 -64 -52 -108 0 -67 -16
-67 -48 1 -17 35 -56 96 -86 134 -30 39 -67 87 -82 107 -42 59 -30 83 100 209
61 60 112 109 112 109 1 0 41 -66 90 -146z m-4080 -304 c277 -300 328 -340
469 -360 39 -5 175 -10 303 -10 l232 0 0 -119 c0 -203 -44 -374 -155 -596
-107 -215 -195 -311 -353 -386 -72 -34 -346 -129 -373 -129 -24 0 -120 -73
-260 -197 -288 -256 -445 -375 -550 -414 -66 -25 -202 -27 -295 -3 -176 44
-316 126 -511 300 -142 127 -232 178 -338 193 -44 7 -75 17 -88 29 -19 20 -19
20 17 88 119 226 735 932 875 1004 143 72 275 -61 402 -405 71 -190 155 -267
351 -320 82 -22 77 -10 -72 168 -66 80 -107 161 -119 234 -11 68 -40 132 -82
181 -76 86 -24 150 68 83 68 -49 143 -184 143 -257 0 -140 346 -313 549 -274
222 42 661 439 661 598 0 37 -15 72 -32 72 -23 0 -136 -64 -206 -117 -40 -30
-115 -92 -167 -138 -119 -105 -162 -135 -277 -190 -155 -75 -270 -93 -253 -42
13 41 7 68 -27 120 -53 79 -120 154 -216 240 -139 127 -185 141 -269 83 -79
-55 -88 -55 -136 -2 -50 54 -87 65 -141 42 -21 -9 -43 -13 -48 -10 -14 9 -3
86 23 165 68 211 229 367 495 479 65 28 133 57 149 65 17 8 37 13 45 12 9 -1
92 -85 186 -187z m-996 -141 c0 -6 -74 -88 -164 -182 -90 -95 -210 -224 -268
-287 -130 -143 -239 -237 -293 -251 -81 -22 -362 -342 -353 -403 2 -14 11 -22
28 -24 104 -11 112 -23 55 -90 -46 -53 -122 -90 -211 -101 -77 -10 -128 -31
-144 -60 -13 -25 -13 -27 6 -45 8 -9 31 -16 50 -16 40 0 89 -22 97 -45 19 -48
-31 -66 -193 -72 -175 -7 -308 23 -327 73 -13 33 50 126 177 260 81 85 139
156 156 191 29 57 93 122 217 220 96 76 207 183 207 200 0 19 -38 16 -116 -11
-234 -80 -600 -278 -624 -337 -12 -28 -47 -49 -83 -49 -62 0 -197 -143 -197
-209 0 -24 33 -49 77 -57 80 -15 0 -40 -99 -31 -166 15 -346 183 -402 377 -9
30 -19 114 -23 186 l-6 132 114 5 c63 4 236 11 384 16 264 11 466 29 575 52
30 6 258 103 505 214 514 231 697 311 775 336 65 21 80 23 80 8z m8244 -456
c9 -22 -24 -83 -55 -106 -62 -45 -95 21 -42 83 40 49 84 59 97 23z m-256 -81
c7 -44 -83 -74 -157 -53 -38 10 -35 25 11 51 77 43 140 44 146 2z m-5629 -28
c42 -54 13 -154 -44 -154 -34 0 -60 43 -59 97 2 77 61 110 103 57z m1384 -146
c22 -27 22 -49 -4 -82 -25 -32 -70 -35 -99 -6 -29 29 -26 74 7 100 32 25 69
20 96 -12z m-493 -28 c32 -32 25 -100 -11 -100 -22 0 -69 59 -69 88 0 35 49
43 80 12z m-767 -64 c42 -17 87 -70 87 -102 0 -28 -32 -64 -57 -64 -51 0 -123
78 -123 132 0 44 37 58 93 34z m986 -15 c27 -17 2 -99 -71 -240 -133 -256
-175 -392 -165 -527 10 -140 73 -226 233 -322 98 -58 211 -105 327 -134 75
-19 114 -20 193 -3 26 6 32 3 42 -20 18 -38 15 -61 -12 -92 -23 -27 -28 -28
-108 -27 -106 2 -297 37 -413 75 -118 40 -202 87 -278 159 -116 108 -164 226
-154 376 13 209 225 674 340 744 36 22 46 24 66 11z m-1233 -116 c25 -34 -8
-77 -91 -118 -100 -50 -145 -42 -145 25 0 79 191 154 236 93z m1869 -6 c39
-35 45 -63 16 -79 -43 -22 -125 -2 -138 33 -25 76 54 106 122 46z m-395 -36
c0 -50 -35 -144 -87 -236 -87 -153 -105 -268 -58 -364 33 -65 125 -153 203
-192 157 -79 332 -77 332 4 0 28 -22 47 -69 60 -45 13 -66 50 -51 90 10 26 14
27 55 23 50 -6 127 -49 199 -110 58 -50 60 -75 7 -117 -49 -39 -68 -82 -52
-117 17 -38 13 -54 -15 -64 -61 -23 -287 41 -484 137 -94 45 -127 68 -180 122
-84 84 -106 143 -97 261 14 182 148 485 239 540 43 26 58 17 58 -37z m-5193
21 c44 -34 44 -61 -2 -70 -47 -8 -85 16 -85 55 0 15 3 31 7 34 13 14 47 6 80
-19z m4153 -89 c37 -19 50 -43 50 -91 0 -40 -39 -118 -65 -128 -18 -6 -38 21
-60 83 -21 60 -19 107 5 131 24 24 32 25 70 5z m1287 -81 c16 -22 17 -88 2
-116 -6 -11 -26 -26 -45 -34 -44 -19 -59 -54 -68 -157 -3 -42 -12 -93 -20
-112 -13 -31 -19 -35 -51 -35 -47 0 -85 36 -85 82 0 18 11 57 25 86 35 76 55
149 55 202 0 50 20 78 70 99 35 15 102 6 117 -15z m-1610 -49 c83 -55 -11
-241 -98 -195 -30 17 -59 70 -59 110 1 91 81 134 157 85z m2182 0 c40 -20 81
-72 81 -101 0 -28 -32 -64 -57 -64 -29 0 -82 37 -103 72 -49 80 -2 135 79 93z
m-2549 -142 c59 -76 -58 -183 -138 -127 -12 8 -22 24 -22 35 0 52 65 119 117
119 12 0 31 -12 43 -27z m894 5 c63 -89 -81 -204 -146 -117 -18 24 -18 28 -4
62 28 67 119 100 150 55z m-336 -164 c12 -8 22 -25 22 -38 0 -45 -109 -166
-150 -166 -28 0 -64 73 -56 115 15 76 125 130 184 89z m1768 -25 c65 -40 63
-79 -5 -79 -57 0 -93 54 -59 88 16 16 25 15 64 -9z m1358 -35 c9 -3 16 -12 16
-19 0 -17 -23 -25 -75 -25 -74 0 -99 20 -47 38 31 12 83 15 106 6z m-4316 -71
c31 -42 -1 -87 -69 -98 -74 -11 -97 -24 -109 -61 -13 -39 -45 -59 -108 -67
-48 -6 -82 -30 -82 -59 0 -46 -90 -80 -119 -44 -25 29 49 125 175 226 144 115
271 157 312 103z m814 0 c24 -22 23 -53 -5 -94 -31 -47 -85 -73 -123 -59 -97
37 -96 120 1 155 54 19 105 18 127 -2z m4908 -39 c38 -37 35 -48 -17 -59 -27
-5 -37 -2 -58 19 -27 27 -32 55 -13 74 17 17 48 5 88 -34z m-455 -20 c14 -15
25 -38 25 -51 0 -48 -113 -68 -155 -27 -21 22 -19 38 11 73 34 41 84 43 119 5z
m-1621 -19 c4 -14 6 -168 5 -343 -1 -369 10 -461 61 -517 32 -35 50 -124 60
-295 12 -194 29 -273 70 -315 52 -54 72 -127 49 -179 -22 -48 -65 -41 -117 18
-98 111 -216 760 -229 1261 -7 262 -1 324 34 365 31 37 59 39 67 5z m-6012
-42 c38 -34 7 -103 -46 -103 -32 0 -69 45 -60 74 13 45 71 61 106 29z m2733 3
c44 -19 87 -84 89 -134 1 -52 -26 -92 -63 -92 -81 0 -161 181 -99 224 27 19
30 20 73 2z m3542 6 c34 -21 46 -87 54 -297 11 -260 30 -460 75 -770 47 -325
57 -585 24 -585 -52 0 -143 350 -160 617 -10 154 -28 241 -57 264 -54 45 -79
223 -63 440 20 263 62 372 127 331z m270 -23 c22 -46 33 -168 43 -474 10 -333
26 -458 65 -515 32 -47 43 -97 54 -228 15 -182 -11 -402 -47 -402 -28 0 -60
78 -82 198 -25 144 -86 777 -100 1052 -14 266 -1 405 38 398 9 -2 22 -15 29
-29z m258 -2 c55 -132 40 -677 -20 -727 -42 -35 -57 37 -62 297 -5 227 5 365
32 430 8 18 19 33 25 33 6 0 17 -15 25 -33z m-3065 8 c30 -36 -24 -171 -80
-200 -67 -35 -120 -9 -120 58 0 48 30 104 73 135 37 26 108 30 127 7z m-4570
-21 c12 -31 13 -94 1 -113 -23 -35 -47 33 -36 99 8 46 21 51 35 14z m3262
-123 c29 -31 38 -49 38 -75 0 -44 -20 -56 -95 -56 -52 0 -60 3 -92 35 -30 30
-35 40 -29 68 16 86 110 101 178 28z m872 -11 c41 -37 70 -94 62 -125 -14 -54
-153 -75 -217 -32 -40 26 -46 54 -24 97 19 38 90 90 121 90 13 0 39 -14 58
-30z m-3064 -70 c42 -22 45 -116 6 -175 -21 -32 -71 -51 -100 -37 -70 32 -13
204 72 221 2 1 12 -4 22 -9z m-856 -31 c52 -41 73 -112 36 -124 -42 -13 -100
56 -100 119 0 33 26 35 64 5z m-336 -37 c11 -34 11 -46 0 -69 -7 -15 -17 -28
-23 -28 -13 0 -24 60 -18 106 7 50 24 46 41 -9z m1530 -5 c8 -6 12 -25 10 -46
-2 -27 -10 -39 -30 -51 -25 -13 -31 -13 -55 0 -30 17 -38 38 -29 74 10 40 67
53 104 23z m-694 -19 c13 -37 -13 -92 -53 -112 -27 -14 -31 -14 -45 0 -21 20
-21 93 0 122 12 18 24 22 52 20 30 -2 38 -8 46 -30z m2967 15 c37 -22 56 -66
41 -98 -16 -34 -57 -58 -86 -51 -49 12 -58 119 -13 151 26 18 23 19 58 -2z
m1009 -18 c38 -34 18 -89 -55 -153 -55 -48 -88 -59 -121 -37 -20 13 -24 24
-24 69 0 59 27 111 70 134 32 17 105 9 130 -13z m-2193 -105 c83 -50 55 -113
-44 -97 -65 11 -89 50 -57 95 19 28 58 29 101 2z m352 1 c60 -31 101 -84 101
-132 0 -115 -162 -122 -221 -9 -24 43 -25 122 -3 144 21 22 77 20 123 -3z
m521 -1 c59 -59 -21 -210 -112 -210 -68 0 -116 89 -85 156 31 65 153 98 197
54z m-3250 0 c25 -13 36 -71 20 -101 -30 -59 -110 -79 -151 -38 -35 35 -8 102
53 132 39 19 53 21 78 7z m4155 -23 c19 -28 19 -110 0 -147 -19 -36 -43 -50
-89 -50 -50 0 -80 40 -71 95 8 55 35 97 73 116 38 20 67 15 87 -14z m2200 -2
c14 -13 25 -34 25 -46 0 -27 -46 -89 -65 -89 -21 0 -35 33 -35 80 0 78 30 100
75 55z m-6801 -31 c24 -23 30 -61 17 -102 -20 -67 -28 -71 -61 -32 -35 40 -47
91 -31 126 12 28 51 32 75 8z m2060 -75 c14 -11 33 -34 42 -50 14 -28 13 -31
-10 -54 -34 -33 -71 -32 -107 4 -31 32 -40 86 -17 109 18 18 62 14 92 -9z
m376 1 c23 -23 24 -33 10 -61 -15 -28 -63 -49 -111 -49 -47 0 -129 41 -129 65
0 17 8 22 73 46 70 25 131 25 157 -1z m1748 -17 c36 -50 21 -124 -34 -173 -44
-38 -74 -35 -116 11 -23 24 -28 39 -28 80 0 44 4 55 30 79 17 16 41 30 53 32
32 5 80 -9 95 -29z m-2552 -2 c18 -11 44 -35 59 -54 55 -74 12 -137 -96 -140
-42 -2 -54 2 -70 22 -39 48 -36 125 6 167 29 29 59 30 101 5z m3542 -33 c18
-18 14 -77 -7 -123 -27 -59 -65 -90 -110 -90 -45 0 -69 17 -88 63 -11 27 -11
37 1 66 25 61 169 119 204 84z m-4267 -30 c12 -23 15 -135 4 -169 -4 -10 -13
-19 -21 -19 -19 0 -64 95 -64 135 0 63 56 100 81 53z m4759 -18 c11 -6 25 -28
31 -50 15 -49 -1 -95 -42 -115 -36 -19 -59 -19 -87 1 -40 28 -22 97 38 148 36
30 35 29 60 16z m-5474 -20 c23 -11 68 -48 99 -81 63 -66 62 -79 -5 -79 -82 0
-155 41 -180 100 -10 25 -10 34 4 55 20 30 28 31 82 5z m1094 0 c34 -63 -79
-159 -175 -148 -27 3 -30 6 -29 39 2 72 69 128 151 129 32 0 45 -5 53 -20z
m1506 -1 c58 -28 114 -91 114 -128 0 -40 -52 -85 -89 -76 -38 9 -91 55 -128
109 -51 75 -41 116 26 116 19 0 54 -9 77 -21z m1002 -69 c36 -22 40 -45 17
-89 -20 -40 -101 -108 -136 -116 -82 -18 -105 119 -32 187 47 44 99 50 151 18z
m963 -23 c68 -46 39 -112 -71 -161 -78 -35 -106 -28 -138 34 -13 26 -20 53
-16 65 22 74 153 111 225 62z m-1474 -40 c42 -32 103 -102 103 -118 0 -19 -43
-29 -122 -29 -96 0 -132 14 -136 52 -6 50 49 128 91 128 12 0 41 -15 64 -33z
m-824 -72 c63 -61 50 -75 -72 -75 -50 0 -84 5 -96 14 -19 13 -18 16 22 55 54
55 94 56 146 6z m1827 20 c95 -49 30 -215 -85 -215 -57 0 -85 32 -85 99 0 53
18 84 64 112 37 23 67 24 106 4z m-3698 -35 c10 -12 18 -26 18 -31 0 -25 -113
-39 -151 -19 -25 14 -24 35 2 61 28 28 104 22 131 -11z m1452 9 c48 -38 24
-69 -54 -69 -73 0 -100 31 -63 72 22 25 83 24 117 -3z m3369 -30 c29 -16 37
-28 37 -62 0 -66 -50 -97 -155 -98 -97 -1 -145 21 -145 66 0 66 188 133 263
94z m-3784 -76 c38 -29 40 -81 6 -113 -21 -20 -39 -25 -93 -28 -58 -3 -72 0
-102 20 -43 29 -52 74 -21 102 52 47 159 57 210 19z m-810 -19 c12 -15 21 -32
21 -39 0 -23 -46 -80 -67 -83 -22 -3 -23 -2 -38 71 -2 10 1 32 7 48 13 38 49
39 77 3z m405 12 c48 -20 65 -73 39 -118 -27 -46 -65 -70 -122 -76 -62 -6 -81
7 -81 55 0 66 47 131 105 146 11 2 21 5 23 6 1 0 18 -5 36 -13z m6873 -77 c-5
-41 -51 -129 -67 -129 -15 0 -32 80 -25 116 8 44 50 78 77 63 17 -9 19 -18 15
-50z m-4193 19 c22 -30 21 -126 0 -157 -44 -62 -205 -69 -276 -12 -18 15 -22
28 -22 61 2 57 24 76 109 94 39 8 81 19 95 25 42 17 78 13 94 -11z m-1088 -7
c81 -37 108 -95 59 -127 -33 -21 -76 -11 -119 30 -44 41 -56 84 -31 103 25 17
42 16 91 -6z m2123 -9 c19 -9 44 -29 55 -44 19 -26 19 -28 2 -47 -47 -51 -224
-53 -287 -2 -82 67 121 149 230 93z m-2453 -31 c37 -23 64 -76 64 -128 0 -69
-33 -79 -117 -38 -53 27 -133 104 -133 128 0 15 26 41 50 50 34 12 106 6 136
-12z m847 -11 c80 -55 99 -129 47 -182 -28 -27 -36 -30 -75 -25 -67 7 -111 45
-131 112 -15 54 -13 86 9 114 17 21 109 9 150 -19z m-1219 14 c42 -16 2 -109
-60 -139 -47 -23 -155 -27 -162 -7 -2 8 21 38 52 69 73 70 126 94 170 77z
m2346 -117 c39 -19 38 -61 -2 -111 -95 -118 -166 -144 -227 -82 -65 68 -47
146 43 187 48 22 149 25 186 6z m-3585 -168 c41 -45 75 -91 75 -100 0 -25 -76
-35 -131 -18 -66 22 -84 55 -82 145 2 42 5 80 9 85 8 13 44 -18 129 -112z
m400 40 c24 -12 30 -21 28 -44 -3 -42 -52 -96 -117 -129 -66 -35 -93 -29 -119
27 -23 47 -21 79 5 112 42 54 131 69 203 34z m438 2 c15 -11 15 -16 2 -41 -18
-35 -79 -89 -121 -106 -48 -20 -123 -18 -158 5 -29 19 -66 68 -66 87 0 24 29
47 76 60 63 18 244 15 267 -5z m1157 -12 c110 -49 201 -194 138 -218 -45 -16
-129 31 -209 116 -57 60 -69 91 -43 110 25 18 62 16 114 -8z m1191 -78 c26
-26 28 -32 18 -60 -13 -37 -78 -97 -128 -118 -20 -9 -61 -16 -91 -16 -156 -2
-176 116 -32 190 54 28 74 33 134 33 63 0 72 -3 99 -29z m-1628 -32 c160 -81
597 -431 597 -478 0 -18 -65 -64 -139 -100 -166 -78 -214 -53 -744 394 -168
142 -220 192 -208 197 9 4 114 7 234 7 203 1 221 0 260 -20z m1031 -13 c40
-17 78 -63 74 -90 -2 -13 -19 -29 -43 -41 -59 -29 -244 -29 -295 1 -45 26 -48
47 -14 79 56 52 208 80 278 51z m89 -401 c113 -20 208 -50 239 -75 19 -15 28
-35 37 -82 17 -95 31 -270 31 -389 0 -230 31 -507 86 -767 58 -275 67 -346 50
-386 -22 -52 -63 -69 -182 -74 -117 -5 -152 7 -178 62 -20 42 -35 153 -36 255
-1 244 -247 1040 -380 1230 -45 64 -60 106 -60 166 0 78 22 87 180 81 69 -3
164 -13 213 -21z m3997 -146 c33 -64 71 -193 96 -324 22 -114 25 -427 5 -494
-18 -63 -40 -94 -57 -81 -18 15 -30 79 -49 260 -29 275 -65 553 -81 625 -9 39
-18 90 -20 115 l-5 45 41 -45 c23 -25 54 -70 70 -101z m-4585 -171 c35 -16 56
-59 62 -127 6 -67 -9 -131 -38 -157 -18 -17 -23 -17 -47 -4 -33 18 -76 101
-93 177 -15 65 -1 102 41 114 37 10 47 10 75 -3z m5114 -1389 c74 -69 63 -198
-16 -199 -51 0 -81 153 -39 199 24 26 27 26 55 0z m-4353 -313 c28 -28 34 -42
34 -76 0 -34 -6 -48 -34 -76 -66 -66 -121 -31 -121 76 0 107 55 142 121 76z"/>
<path d="M2660 5891 c-5 -11 -10 -30 -10 -42 0 -44 -76 -160 -221 -339 -116
-144 -172 -236 -175 -288 -3 -51 -15 -62 -88 -86 -99 -31 -149 -78 -149 -138
0 -39 33 -68 77 -68 55 0 99 -30 112 -75 9 -35 15 -40 42 -43 36 -4 73 14 131
62 41 34 81 47 81 26 0 -41 87 42 130 123 30 56 24 75 -44 159 -65 80 -86 132
-63 155 18 19 37 9 37 -18 0 -30 27 -76 48 -81 43 -12 82 45 82 120 0 52 18
100 42 113 25 13 64 -11 80 -49 42 -103 62 -136 101 -176 55 -54 134 -96 182
-96 31 0 35 3 35 25 0 34 -21 73 -60 110 -74 70 -111 161 -129 315 -5 47 -19
106 -30 133 -24 56 -99 139 -146 161 -43 21 -52 20 -65 -3z"/>
<path d="M2346 4778 c-21 -30 -20 -50 4 -76 26 -27 64 -28 90 -2 40 40 12 100
-45 100 -24 0 -39 -7 -49 -22z"/>
</g>
</svg>
